<?xml version="1.0" encoding="UTF-8"?>
<svg xmlns="http://www.w3.org/2000/svg" xmlns:xlink="http://www.w3.org/1999/xlink" width="428.6pt" height="428.5pt" viewBox="0 0 428.6 428.5" version="1.1">
<g id="surface1">
<path style=" stroke:none;fill-rule:evenodd;fill:rgb(3.137207%,16.479492%,27.830505%);fill-opacity:1;" d="M 62.164063 314.988281 C 56.59375 318.886719 57.421875 323.019531 58.992188 325.265625 C 60.5625 327.503906 64.160156 329.695313 69.730469 325.792969 C 75.300781 321.894531 74.472656 317.769531 72.902344 315.519531 C 71.328125 313.277344 67.730469 311.085938 62.164063 314.988281 Z M 62.164063 314.988281 "/>
<path style=" stroke:none;fill-rule:evenodd;fill:rgb(3.137207%,16.479492%,27.830505%);fill-opacity:1;" d="M 88.707031 75.882813 C 87.8125 74.960938 86.082031 73.992188 83.9375 76.0625 L 79.390625 80.457031 L 83.90625 85.128906 L 88.1875 80.996094 C 90.082031 79.15625 90.378906 77.609375 88.707031 75.882813 Z M 88.707031 75.882813 "/>
<path style=" stroke:none;fill-rule:evenodd;fill:rgb(3.137207%,16.479492%,27.830505%);fill-opacity:1;" d="M 179.316406 28.824219 L 179.25 28.835938 L 177.847656 38.835938 L 183.945313 37.765625 Z M 179.316406 28.824219 "/>
<path style=" stroke:none;fill-rule:evenodd;fill:rgb(3.137207%,16.479492%,27.830505%);fill-opacity:1;" d="M 276.210938 37.757813 C 276.628906 36.539063 276.699219 34.5625 273.886719 33.59375 L 267.902344 31.535156 L 265.792969 37.675781 L 271.425781 39.609375 C 273.917969 40.472656 275.429688 40.027344 276.210938 37.757813 Z M 276.210938 37.757813 "/>
<path style=" stroke:none;fill-rule:evenodd;fill:rgb(3.137207%,16.479492%,27.830505%);fill-opacity:1;" d="M 393.386719 250.785156 C 391.613281 250.917969 389.976563 249.289063 390.027344 247.421875 C 389.976563 245.558594 391.613281 243.921875 393.386719 243.777344 C 395.34375 243.921875 396.976563 245.558594 397.027344 247.421875 C 396.976563 249.289063 395.34375 250.917969 393.386719 250.785156 Z M 391.035156 297.4375 C 390.121094 299.480469 388.28125 302.285156 385.207031 303.289063 C 383.304688 303.886719 381.304688 303.554688 379.054688 302.625 L 364.34375 296.074219 L 366.449219 291.34375 L 380.851563 297.753906 C 383.941406 299.128906 386.101563 297.945313 387.066406 295.785156 C 388.480469 292.597656 387.515625 290.613281 384.828125 289.417969 L 370.203125 282.90625 L 372.3125 278.179688 L 386.746094 284.605469 C 392.589844 287.203125 393.523438 291.839844 391.035156 297.4375 Z M 373.472656 327.519531 C 368.386719 334.777344 363.332031 333.09375 360.859375 331.367188 L 363.65625 327.378906 C 364.789063 328.125 367.28125 329.042969 369.824219 325.414063 C 371.195313 323.449219 372.261719 320.929688 370.15625 319.453125 C 368.601563 318.367188 367.136719 319.574219 365.164063 321.332031 L 363.171875 323.117188 C 360.175781 325.808594 357.277344 328.40625 352.90625 325.339844 C 350.683594 323.785156 347.609375 319.859375 352.132813 313.402344 C 356.398438 307.304688 361.535156 308.464844 363.992188 310.144531 L 361.203125 314.132813 C 360.234375 313.625 357.894531 312.480469 355.359375 316.113281 C 354.25 317.695313 353.511719 319.984375 355.308594 321.246094 C 356.863281 322.332031 358.089844 321.289063 358.867188 320.59375 L 363.457031 316.578125 C 366.023438 314.328125 368.875 312.613281 372.449219 315.117188 C 378.433594 319.304688 374.695313 325.773438 373.472656 327.519531 Z M 344.277344 359.59375 L 327.40625 342.117188 L 340.253906 329.710938 L 343.238281 332.804688 L 333.96875 341.757813 L 337.511719 345.429688 L 346.035156 337.207031 L 349.015625 340.296875 L 340.5 348.519531 L 344.871094 353.046875 L 354.558594 343.695313 L 357.542969 346.785156 Z M 326.414063 374.3125 C 319.871094 379.066406 316.847656 374.90625 314.121094 371.15625 L 317.957031 368.375 C 320.199219 371.46875 321.511719 372.8125 323.703125 371.222656 C 325.839844 369.671875 325.007813 368.179688 323.914063 366.679688 L 313.773438 352.71875 L 317.875 349.738281 L 328.019531 363.695313 C 331.042969 367.851563 330.351563 371.453125 326.414063 374.3125 Z M 265.664063 402.726563 C 257.144531 405.167969 254.269531 400.675781 253.441406 397.78125 L 258.125 396.4375 C 258.535156 397.730469 259.890625 400.019531 264.148438 398.796875 C 266.464844 398.132813 268.871094 396.84375 268.160156 394.375 C 267.640625 392.550781 265.746094 392.570313 263.105469 392.6875 L 260.433594 392.824219 C 256.40625 393.023438 252.523438 393.226563 251.050781 388.085938 C 250.308594 385.488281 250.386719 380.496094 257.964844 378.328125 C 265.121094 376.273438 268.382813 380.40625 269.234375 383.261719 L 264.550781 384.601563 C 264.125 383.597656 263.019531 381.238281 258.765625 382.460938 C 256.914063 382.988281 254.894531 384.308594 255.5 386.421875 C 256.019531 388.246094 257.632813 388.207031 258.671875 388.15625 L 264.761719 387.921875 C 268.175781 387.785156 271.472656 388.25 272.679688 392.445313 C 274.6875 399.46875 267.714844 402.136719 265.664063 402.726563 Z M 236.226563 407.585938 L 233.265625 383.484375 L 238.304688 382.871094 L 241.261719 406.96875 Z M 223.632813 389.417969 L 216.300781 389.15625 L 215.601563 409.144531 L 210.53125 408.964844 L 211.230469 388.984375 L 203.890625 388.722656 L 204.039063 384.429688 L 223.789063 385.125 Z M 189.039063 407.65625 L 188.378906 402.457031 L 179.546875 400.902344 L 177.015625 405.539063 L 171.746094 404.609375 L 184.492188 382.191406 L 190.257813 383.210938 L 194.46875 408.617188 Z M 168.992188 383.214844 L 162.050781 380.824219 L 155.546875 399.726563 L 150.746094 398.074219 L 157.257813 379.175781 L 150.316406 376.789063 L 151.714844 372.726563 L 170.390625 379.15625 Z M 141.246094 373 L 129.761719 367.144531 L 127.445313 371.695313 L 137.996094 377.070313 L 136.042969 380.902344 L 125.496094 375.527344 L 122.636719 381.128906 L 134.636719 387.246094 L 132.6875 391.074219 L 116.257813 382.703125 L 127.28125 361.058594 L 143.195313 369.167969 Z M 99.191406 371.046875 L 113.472656 351.398438 L 117.578125 354.378906 L 103.300781 374.03125 Z M 94.792969 340.855469 C 93.039063 339.167969 89.335938 337.84375 84.5625 342.78125 C 81.535156 345.925781 80.050781 349.945313 83.140625 352.925781 C 85.160156 354.878906 87.675781 355.101563 90.183594 353.382813 L 93.832031 356.90625 C 89.433594 360 84.394531 360.253906 80.011719 356.023438 C 75.363281 351.53125 75.058594 345.175781 80.886719 339.140625 C 86.789063 333.027344 93.324219 333.320313 97.828125 337.667969 C 103.058594 342.726563 101.695313 348.371094 99.402344 351.136719 L 95.753906 347.613281 C 96.472656 346.285156 97.8125 343.773438 94.792969 340.855469 Z M 72.640625 329.949219 C 63.300781 336.488281 57.3125 330.359375 55.472656 327.726563 C 53.628906 325.09375 49.914063 317.371094 59.246094 310.828125 C 68.59375 304.292969 74.574219 310.425781 76.417969 313.054688 C 78.265625 315.691406 81.980469 323.410156 72.640625 329.949219 Z M 50.679688 288.066406 L 51.757813 294.066406 C 52.367188 297.425781 52.367188 300.757813 48.382813 302.53125 C 41.707031 305.503906 38.089844 298.96875 37.222656 297.015625 C 33.617188 288.917969 37.667969 285.449219 40.414063 284.226563 L 42.398438 288.675781 C 41.175781 289.257813 39.101563 290.921875 40.902344 294.972656 C 41.878906 297.167969 43.492188 299.375 45.84375 298.328125 C 47.574219 297.554688 47.296875 295.679688 46.808594 293.089844 L 46.304688 290.460938 C 45.539063 286.5 44.804688 282.679688 49.683594 280.507813 C 52.15625 279.40625 57.109375 278.796875 60.316406 285.996094 C 63.339844 292.796875 59.703125 296.605469 56.992188 297.84375 L 55.015625 293.390625 C 55.953125 292.828125 58.128906 291.410156 56.332031 287.363281 C 55.546875 285.597656 53.960938 283.789063 51.953125 284.683594 C 50.222656 285.453125 50.480469 287.039063 50.679688 288.066406 Z M 29.96875 250.785156 C 30.085938 249.054688 31.71875 247.421875 33.609375 247.421875 C 35.449219 247.421875 37.085938 249.054688 36.96875 250.785156 C 37.085938 252.789063 35.449219 254.425781 33.609375 254.425781 C 31.71875 254.425781 30.085938 252.789063 29.96875 250.785156 Z M 20.105469 213.910156 L 35.855469 214.1875 C 39.242188 214.25 40.761719 212.3125 40.800781 209.945313 C 40.867188 206.460938 39.195313 205.015625 36.253906 204.960938 L 20.265625 204.679688 L 20.355469 199.503906 L 36.144531 199.785156 C 42.539063 199.894531 45.207031 203.800781 45.101563 209.917969 C 45.0625 212.152344 44.464844 215.457031 42.027344 217.574219 C 40.515625 218.867188 38.542969 219.339844 36.105469 219.363281 L 20.011719 219.085938 Z M 23.148438 178.757813 L 41.796875 173.167969 L 41.808594 173.101563 L 25.332031 169.296875 L 26.394531 164.679688 L 50.0625 170.152344 L 48.921875 175.09375 L 29.8125 180.851563 L 29.800781 180.921875 L 46.675781 184.816406 L 45.617188 189.433594 L 21.945313 183.96875 Z M 31.785156 147.917969 L 54.886719 155.425781 L 53.320313 160.25 L 30.210938 152.746094 Z M 38.523438 131.296875 L 57.292969 135.007813 L 57.324219 134.949219 L 43.320313 121.890625 L 45.714844 117.1875 L 63.609375 135.570313 L 61.417969 139.878906 L 36.050781 136.148438 Z M 62.671875 92.160156 L 66.1875 94.625 L 58.796875 105.183594 L 62.980469 108.113281 L 69.773438 98.414063 L 73.292969 100.878906 L 66.496094 110.582031 L 71.652344 114.183594 L 79.375 103.160156 L 82.898438 105.625 L 72.320313 120.726563 L 52.425781 106.789063 Z M 81.730469 72.367188 C 86.382813 67.878906 90.546875 70.484375 92.003906 71.992188 C 93.863281 73.914063 94.484375 76.507813 93.320313 78.761719 C 95.367188 78.007813 96.664063 77.789063 99.8125 81.054688 C 102.277344 83.609375 102.890625 84.242188 103.953125 83.777344 L 104.398438 84.242188 L 100.359375 88.140625 C 99.316406 87.554688 98.300781 86.789063 96.558594 84.988281 C 94.261719 82.605469 93.21875 81.824219 90.515625 84.425781 L 86.746094 88.070313 L 93.355469 94.90625 L 89.773438 98.363281 L 72.902344 80.890625 Z M 105.996094 52.234375 C 112.234375 48.179688 116.5625 51.179688 118.214844 53.660156 L 114.125 56.3125 C 113.421875 55.476563 111.683594 53.542969 107.96875 55.957031 C 106.347656 57.007813 104.808594 58.855469 106.003906 60.703125 C 107.035156 62.289063 108.5625 61.785156 109.542969 61.429688 L 115.304688 59.425781 C 118.523438 58.296875 121.816406 57.777344 124.195313 61.433594 C 128.171875 67.566406 122.277344 72.160156 120.488281 73.316406 C 113.054688 78.148438 108.996094 74.691406 107.359375 72.164063 L 111.441406 69.511719 C 112.210938 70.628906 114.175781 72.414063 117.894531 70.003906 C 119.910156 68.695313 121.835938 66.753906 120.441406 64.601563 C 119.40625 63.011719 117.597656 63.582031 115.109375 64.472656 L 112.589844 65.378906 C 108.800781 66.75 105.148438 68.078125 102.234375 63.59375 C 100.757813 61.320313 99.382813 56.527344 105.996094 52.234375 Z M 129.828125 39.386719 L 140.851563 61.03125 L 136.335938 63.335938 L 125.304688 41.691406 Z M 159.058594 27.765625 L 160.457031 31.832031 L 153.519531 34.21875 L 160.027344 53.117188 L 155.230469 54.773438 L 148.722656 35.871094 L 141.78125 38.257813 L 140.386719 34.199219 Z M 175.496094 23.933594 L 181.261719 22.917969 L 193.910156 45.355469 L 188.476563 46.3125 L 186.074219 41.648438 L 177.25 43.203125 L 176.449219 48.429688 L 171.183594 49.359375 Z M 212.3125 34.519531 L 209.699219 33.957031 C 205.757813 33.113281 201.960938 32.300781 201.863281 26.953125 C 201.820313 24.253906 203.1875 19.460938 211.070313 19.320313 C 218.503906 19.191406 220.589844 24.023438 220.671875 27 L 215.800781 27.085938 C 215.648438 26.007813 215.199219 23.445313 210.765625 23.519531 C 208.839844 23.554688 206.550781 24.304688 206.589844 26.5 C 206.621094 28.394531 208.1875 28.773438 209.203125 28.992188 L 215.148438 30.34375 C 218.480469 31.097656 221.546875 32.398438 221.621094 36.757813 C 221.75 44.0625 214.320313 44.835938 212.191406 44.871094 C 203.332031 45.03125 201.722656 39.949219 201.664063 36.9375 L 206.539063 36.851563 C 206.597656 38.203125 207.316406 40.761719 211.742188 40.6875 C 214.144531 40.648438 216.808594 40.023438 216.765625 37.449219 C 216.730469 35.5625 214.894531 35.082031 212.3125 34.519531 Z M 264.566406 25.953125 L 276.179688 29.945313 C 282.289063 32.050781 281.855469 36.941406 281.171875 38.925781 C 280.300781 41.453125 278.273438 43.191406 275.738281 43.175781 C 277.34375 44.65625 278.121094 45.707031 276.644531 49.996094 C 275.492188 53.351563 275.203125 54.1875 276.09375 54.921875 L 275.886719 55.53125 L 270.582031 53.699219 C 270.632813 52.503906 270.84375 51.253906 271.65625 48.890625 C 272.738281 45.753906 272.96875 44.472656 269.417969 43.25 L 264.457031 41.546875 L 261.367188 50.53125 L 256.667969 48.914063 Z M 296.109375 37.675781 L 312.027344 45.78125 L 310.078125 49.613281 L 298.59375 43.765625 L 296.273438 48.3125 L 306.820313 53.691406 L 304.871094 57.519531 L 294.320313 52.144531 L 291.46875 57.75 L 303.460938 63.863281 L 301.511719 67.691406 L 285.085938 59.320313 Z M 316.878906 62.996094 C 320.960938 57.769531 327.722656 55.105469 334.152344 60.171875 C 340.019531 64.757813 339.363281 70.378906 337.511719 73.1875 L 333.511719 70.066406 C 334.089844 69.316406 334.609375 65.859375 331.78125 63.648438 C 328.929688 61.417969 324.746094 61.332031 320.917969 66.238281 C 316.832031 71.460938 318.628906 75.046875 321.347656 77.171875 C 322.222656 77.859375 325.425781 79.808594 329.273438 76.589844 L 324.828125 73.109375 L 327.339844 69.882813 L 335.34375 76.128906 L 327.28125 86.453125 L 324.613281 84.367188 L 326.089844 81.652344 C 324.15625 82.03125 321.335938 82.621094 317.84375 79.894531 C 313.230469 76.289063 311.628906 69.710938 316.878906 62.996094 Z M 355.605469 80.765625 L 337.851563 97.332031 L 334.386719 93.617188 L 352.148438 77.050781 Z M 358.066406 93.535156 C 360.199219 91.871094 364.855469 90.078125 369.707031 96.289063 C 374.292969 102.152344 371.683594 106.730469 369.359375 108.585938 L 366.355469 104.75 C 367.125 103.972656 368.90625 102.074219 366.179688 98.578125 C 364.992188 97.0625 363.015625 95.683594 361.28125 97.035156 C 359.785156 98.203125 360.421875 99.679688 360.859375 100.625 L 363.359375 106.1875 C 364.761719 109.304688 365.570313 112.535156 362.128906 115.222656 C 356.375 119.71875 351.285156 114.25 349.96875 112.570313 C 344.511719 105.589844 347.605469 101.242188 349.972656 99.386719 L 352.972656 103.226563 C 351.929688 104.089844 350.316406 106.203125 353.046875 109.695313 C 354.527344 111.585938 356.628906 113.34375 358.65625 111.757813 C 360.144531 110.589844 359.421875 108.839844 358.316406 106.4375 L 357.191406 104.007813 C 355.5 100.351563 353.855469 96.828125 358.066406 93.535156 Z M 384.441406 120.035156 L 363.40625 132.179688 L 360.867188 127.789063 L 381.90625 115.640625 Z M 375.46875 214.105469 C 375.398438 303.066406 303.300781 375.167969 214.480469 375.097656 C 125.511719 375.167969 53.300781 303.066406 53.203125 214.105469 C 53.300781 125.28125 125.511719 53.066406 214.480469 53.117188 C 303.300781 53.066406 375.398438 125.28125 375.46875 214.105469 Z M 395.746094 144.550781 L 376.136719 161.246094 L 374.160156 156.09375 L 378.273438 152.847656 L 375.070313 144.480469 L 369.785156 144.695313 L 367.867188 139.699219 L 393.648438 139.085938 Z M 403.664063 169.648438 L 389.351563 182.847656 L 389.363281 182.914063 L 405.847656 179.105469 L 406.914063 183.722656 L 383.242188 189.1875 L 382.105469 184.242188 L 396.75 170.683594 L 396.734375 170.621094 L 379.855469 174.519531 L 378.789063 169.902344 L 402.464844 164.4375 Z M 408.695313 212.058594 L 384.5625 221.042969 L 384.46875 215.53125 L 389.445313 213.886719 L 389.285156 204.929688 L 384.253906 203.324219 L 384.160156 197.980469 L 408.585938 206.210938 Z M 214.480469 11.117188 C 102.292969 11.1875 11.417969 102.183594 11.488281 214.105469 C 11.417969 326.167969 102.292969 417.160156 214.480469 417.089844 C 326.402344 417.160156 417.277344 326.167969 417.183594 214.105469 C 417.277344 102.183594 326.402344 11.1875 214.480469 11.117188 Z M 214.480469 11.117188 "/>
<path style=" stroke:none;fill-rule:evenodd;fill:rgb(3.137207%,16.479492%,27.830505%);fill-opacity:1;" d="M 403.164063 209.214844 L 403.164063 209.148438 L 393.503906 206.207031 L 393.609375 212.398438 Z M 403.164063 209.214844 "/>
<path style=" stroke:none;fill-rule:evenodd;fill:rgb(3.137207%,16.479492%,27.830505%);fill-opacity:1;" d="M 186.339844 388.082031 L 181.609375 397.003906 L 187.707031 398.078125 L 186.410156 388.097656 Z M 186.339844 388.082031 "/>
<path style=" stroke:none;fill-rule:evenodd;fill:rgb(3.137207%,16.479492%,27.830505%);fill-opacity:1;" d="M 389.574219 143.765625 L 389.550781 143.707031 L 379.460938 144.238281 L 381.6875 150.019531 Z M 389.574219 143.765625 "/>
<path style=" stroke:none;fill-rule:evenodd;fill:rgb(3.137207%,16.479492%,27.830505%);fill-opacity:1;" d="M 214.46875 86.660156 C 216.375 86.660156 218.179688 92.070313 218.179688 96.375 C 218.179688 100.386719 216.515625 106.085938 214.46875 106.085938 C 212.421875 106.085938 210.753906 100.5625 210.753906 96.375 C 210.753906 91.789063 212.539063 86.660156 214.46875 86.660156 Z M 272.207031 112.933594 L 278.050781 85.8125 C 278.050781 85.8125 270.054688 92.480469 260.535156 92.480469 C 250.148438 92.480469 247.210938 83.875 245.722656 77.449219 C 242.925781 79.839844 237.300781 84.832031 229.925781 84.832031 C 225.664063 84.832031 218.355469 81.894531 215.203125 68.042969 L 213.742188 68.042969 C 210.785156 80.304688 204.765625 84.925781 198.195313 84.925781 C 194 84.925781 187.394531 81.859375 182.953125 77.449219 C 180.785156 88.710938 174.628906 92.535156 168.351563 92.535156 C 166.5625 92.535156 159.472656 92.445313 150.871094 85.734375 C 152.515625 93.3125 156.714844 112.933594 156.714844 112.933594 Z M 272.207031 112.933594 "/>
<path style=" stroke:none;fill-rule:evenodd;fill:rgb(3.137207%,16.479492%,27.830505%);fill-opacity:1;" d="M 364.792969 364.5625 C 324.621094 404.769531 271.238281 426.929688 214.476563 426.964844 C 97.179688 426.902344 1.6875 331.40625 1.617188 214.105469 C 1.6875 96.886719 97.117188 1.523438 214.347656 1.523438 L 214.609375 1.523438 C 271.328125 1.523438 324.683594 23.648438 364.835938 63.828125 C 404.996094 104.007813 427.089844 157.378906 427.054688 214.105469 C 427.089844 270.90625 404.976563 324.34375 364.792969 364.5625 Z M 214.371094 428.496094 L 214.683594 428.496094 C 271.777344 428.410156 325.464844 406.09375 365.878906 365.644531 C 406.351563 325.132813 428.621094 271.3125 428.585938 214.105469 C 428.621094 156.96875 406.367188 103.214844 365.917969 62.75 C 325.476563 22.277344 271.738281 -0.00390625 214.609375 -0.00390625 L 214.347656 -0.00390625 C 96.273438 -0.00390625 0.15625 96.039063 0.0859375 214.105469 C 0.15625 332.21875 96.273438 428.371094 214.371094 428.496094 Z M 214.371094 428.496094 "/>
<path style=" stroke:none;fill-rule:evenodd;fill:rgb(3.137207%,16.479492%,27.830505%);fill-opacity:1;" d="M 109.214844 128.46875 C 109.726563 128.460938 111.941406 128.386719 113.550781 128.375 L 113.550781 128.421875 L 98.941406 133.5 L 98.96875 135.839844 L 113.707031 140.601563 L 113.707031 140.644531 C 112.074219 140.664063 109.855469 140.640625 109.34375 140.644531 L 99.015625 140.753906 L 99.042969 143.046875 L 116.527344 142.859375 L 116.492188 139.496094 L 101.660156 134.6875 L 101.660156 134.640625 L 116.390625 129.484375 L 116.347656 126.101563 L 98.863281 126.289063 L 98.886719 128.578125 Z M 109.214844 128.46875 "/>
<path style=" stroke:none;fill-rule:evenodd;fill:rgb(3.137207%,16.479492%,27.830505%);fill-opacity:1;" d="M 114.394531 158.496094 L 116.492188 158.46875 L 116.355469 145.734375 L 98.863281 145.925781 L 99.003906 158.835938 L 101.097656 158.808594 L 100.984375 148.265625 L 106.832031 148.199219 L 106.929688 157.773438 L 109.027344 157.746094 L 108.925781 148.179688 L 114.289063 148.121094 Z M 114.394531 158.496094 "/>
<path style=" stroke:none;fill-rule:evenodd;fill:rgb(3.137207%,16.479492%,27.830505%);fill-opacity:1;" d="M 116.476563 172.761719 L 102.351563 172.917969 L 102.351563 172.867188 L 116.382813 163.972656 L 116.351563 161.167969 L 98.863281 161.359375 L 98.886719 163.648438 L 113.015625 163.496094 L 113.015625 163.546875 L 98.984375 172.585938 L 99.007813 175.242188 L 116.503906 175.050781 Z M 116.476563 172.761719 "/>
<path style=" stroke:none;fill-rule:evenodd;fill:rgb(3.137207%,16.479492%,27.830505%);fill-opacity:1;" d="M 113.8125 192.957031 L 113.8125 193.007813 L 106.144531 195.675781 L 106.082031 190.238281 Z M 103.984375 189.53125 L 104.058594 196.546875 L 98.984375 198.332031 L 99.011719 200.910156 L 116.433594 194.394531 L 116.40625 191.710938 L 98.847656 185.324219 L 98.875 187.761719 Z M 103.984375 189.53125 "/>
<path style=" stroke:none;fill-rule:evenodd;fill:rgb(3.137207%,16.479492%,27.830505%);fill-opacity:1;" d="M 98.984375 213.464844 L 99.007813 216.117188 L 116.5 215.929688 L 116.476563 213.640625 L 102.347656 213.792969 L 102.347656 213.742188 L 116.378906 204.847656 L 116.351563 202.046875 L 98.863281 202.234375 L 98.882813 204.53125 L 113.015625 204.375 L 113.015625 204.425781 Z M 98.984375 213.464844 "/>
<path style=" stroke:none;fill-rule:evenodd;fill:rgb(3.137207%,16.479492%,27.830505%);fill-opacity:1;" d="M 100.738281 226.0625 L 100.660156 221.484375 L 114.101563 221.246094 L 114.183594 225.660156 C 114.238281 228.871094 112.058594 230.929688 107.644531 231.007813 C 103.242188 231.089844 100.792969 229.136719 100.738281 226.0625 Z M 116.210938 225.9375 L 116.085938 218.851563 L 98.59375 219.15625 L 98.71875 226.148438 C 98.820313 231.890625 103.914063 233.507813 107.835938 233.441406 C 112.878906 233.351563 116.292969 230.492188 116.210938 225.9375 Z M 116.210938 225.9375 "/>
<path style=" stroke:none;fill-rule:evenodd;fill:rgb(3.137207%,16.479492%,27.830505%);fill-opacity:1;" d="M 122.855469 265.472656 L 108.277344 266.253906 L 108.265625 266.210938 L 120.863281 258.515625 L 120.148438 256.03125 L 105.390625 256.179688 L 105.378906 256.136719 L 118.152344 249.074219 L 117.453125 246.613281 L 101.890625 255.816406 L 102.574219 258.207031 L 117.625 258.101563 L 117.640625 258.144531 L 104.804688 265.980469 L 105.488281 268.375 L 123.574219 267.980469 Z M 122.855469 265.472656 "/>
<path style=" stroke:none;fill-rule:evenodd;fill:rgb(3.137207%,16.479492%,27.830505%);fill-opacity:1;" d="M 114.824219 284.625 C 113.160156 281.210938 114.851563 277.835938 118.546875 276.03125 C 122.253906 274.226563 125.949219 274.972656 127.613281 278.382813 C 129.28125 281.804688 127.59375 285.175781 123.886719 286.980469 C 120.191406 288.785156 116.488281 288.039063 114.824219 284.625 Z M 129.5 277.464844 C 126.636719 271.597656 120.878906 272.183594 117.480469 273.839844 C 114.085938 275.496094 110.078125 279.675781 112.9375 285.542969 C 115.804688 291.410156 121.566406 290.828125 124.960938 289.167969 C 128.355469 287.519531 132.359375 283.339844 129.5 277.464844 Z M 129.5 277.464844 "/>
<path style=" stroke:none;fill-rule:evenodd;fill:rgb(3.137207%,16.479492%,27.830505%);fill-opacity:1;" d="M 143.546875 298.886719 L 128.925781 304.332031 L 128.898438 304.292969 L 137.246094 291.109375 L 135.117188 288.476563 L 121.523438 299.480469 L 122.957031 301.257813 L 130.992188 294.761719 C 131.386719 294.4375 133.082031 293.003906 134.328125 291.996094 L 134.359375 292.035156 L 126.0625 305.085938 L 127.53125 306.90625 L 142.042969 301.484375 L 142.078125 301.519531 C 140.804688 302.550781 139.050781 303.90625 138.65625 304.226563 L 130.628906 310.726563 L 132.070313 312.507813 L 145.660156 301.5 Z M 143.546875 298.886719 "/>
<path style=" stroke:none;fill-rule:evenodd;fill:rgb(3.137207%,16.479492%,27.830505%);fill-opacity:1;" d="M 145.164063 313.640625 L 152.5 319.792969 L 153.847656 318.191406 L 146.511719 312.035156 L 149.957031 307.925781 L 157.910156 314.597656 L 159.257813 312.996094 L 149.496094 304.804688 L 138.25 318.207031 L 148.144531 326.507813 L 149.488281 324.898438 L 141.40625 318.117188 Z M 145.164063 313.640625 "/>
<path style=" stroke:none;fill-rule:evenodd;fill:rgb(3.137207%,16.479492%,27.830505%);fill-opacity:1;" d="M 163.027344 333.019531 L 162.988281 332.988281 L 163.925781 316.394531 L 161.632813 314.789063 L 151.597656 329.117188 L 153.472656 330.433594 L 161.578125 318.855469 L 161.621094 318.886719 L 160.800781 335.5625 L 162.972656 337.085938 L 173.003906 322.75 L 171.128906 321.4375 Z M 163.027344 333.019531 "/>
<path style=" stroke:none;fill-rule:evenodd;fill:rgb(3.137207%,16.479492%,27.830505%);fill-opacity:1;" d="M 185.105469 330.25 L 176.359375 345.40625 L 178.402344 346.585938 L 187.152344 331.433594 Z M 185.105469 330.25 "/>
<path style=" stroke:none;fill-rule:evenodd;fill:rgb(3.137207%,16.479492%,27.830505%);fill-opacity:1;" d="M 194.054688 351.003906 L 194.007813 350.976563 L 192.921875 334.394531 L 190.449219 333.078125 L 182.238281 348.527344 L 184.253906 349.601563 L 190.890625 337.121094 L 190.933594 337.144531 L 192.152344 353.800781 L 194.496094 355.046875 L 202.710938 339.601563 L 200.691406 338.523438 Z M 194.054688 351.003906 "/>
<path style=" stroke:none;fill-rule:evenodd;fill:rgb(3.137207%,16.479492%,27.830505%);fill-opacity:1;" d="M 241.6875 342.71875 L 236.738281 344.050781 C 235.71875 344.320313 234.566406 344.378906 233.871094 343.070313 C 232.625 340.726563 234.640625 339.179688 235.960938 338.480469 C 237.699219 337.554688 240.078125 337.253906 241.453125 339.582031 L 243.414063 338.546875 C 242.425781 336.890625 240.167969 333.949219 234.773438 336.820313 C 231.027344 338.8125 230.714844 342.015625 231.996094 344.421875 C 233.425781 347.113281 236.085938 346.609375 237.21875 346.308594 L 240.777344 345.355469 C 243.628906 344.609375 244.660156 344.722656 245.511719 346.339844 C 246.695313 348.554688 244.359375 350.292969 242.855469 351.089844 C 240.875 352.144531 238.164063 352.539063 236.675781 349.746094 L 234.71875 350.785156 C 235.484375 352.222656 236.425781 353.382813 238.367188 353.863281 C 239.390625 354.125 240.964844 354.386719 243.828125 352.867188 C 246.476563 351.460938 249.332031 348.644531 247.386719 344.984375 C 246.085938 342.535156 243.9375 342.125 241.6875 342.71875 Z M 241.6875 342.71875 "/>
<path style=" stroke:none;fill-rule:evenodd;fill:rgb(3.137207%,16.479492%,27.830505%);fill-opacity:1;" d="M 253.6875 344.449219 L 250.761719 339.382813 L 259.050781 334.597656 L 258.007813 332.78125 L 249.714844 337.570313 L 247.035156 332.925781 L 256.023438 327.742188 L 254.972656 325.925781 L 243.941406 332.292969 L 252.6875 347.449219 L 263.871094 340.988281 L 262.824219 339.175781 Z M 253.6875 344.449219 "/>
<path style=" stroke:none;fill-rule:evenodd;fill:rgb(3.137207%,16.479492%,27.830505%);fill-opacity:1;" d="M 269.277344 326.28125 L 264.78125 329.429688 L 261.378906 324.558594 L 266.203125 321.175781 C 267.160156 320.503906 268.90625 319.550781 270.457031 321.765625 C 271.9375 323.878906 270.695313 325.289063 269.277344 326.28125 Z M 278.261719 329.003906 L 276.320313 326.492188 C 274.84375 324.550781 273.777344 324.765625 272.722656 325 C 273.261719 323.820313 273.792969 322.28125 272.3125 320.167969 C 270.1875 317.132813 267.261719 317.964844 264.902344 319.617188 L 258.277344 324.253906 L 268.3125 338.589844 L 270.25 337.234375 L 265.945313 331.085938 L 270.632813 327.796875 C 272.949219 326.179688 274.15625 327.390625 274.976563 328.566406 C 275.359375 329.105469 276.933594 331.238281 277.832031 331.921875 L 280.210938 330.257813 L 279.988281 329.9375 C 279.152344 330.015625 278.84375 329.789063 278.261719 329.003906 Z M 278.261719 329.003906 "/>
<path style=" stroke:none;fill-rule:evenodd;fill:rgb(3.137207%,16.479492%,27.830505%);fill-opacity:1;" d="M 280.570313 307.617188 L 286.105469 322.316406 L 286.070313 322.34375 L 272.804688 313.898438 L 270.761719 315.554688 L 286.726563 325.132813 L 288.683594 323.554688 L 282.632813 305.945313 Z M 280.570313 307.617188 "/>
<path style=" stroke:none;fill-rule:evenodd;fill:rgb(3.137207%,16.479492%,27.830505%);fill-opacity:1;" d="M 284.550781 303.851563 L 296.710938 316.4375 L 298.410156 314.796875 L 286.253906 302.210938 Z M 284.550781 303.851563 "/>
<path style=" stroke:none;fill-rule:evenodd;fill:rgb(3.137207%,16.479492%,27.830505%);fill-opacity:1;" d="M 305.828125 296.378906 C 308.488281 299.5625 307.386719 302.085938 306.417969 303.277344 C 303.6875 306.648438 300.304688 305.792969 297.109375 303.203125 C 293.527344 300.300781 293.320313 296.839844 295.316406 294.382813 C 296.371094 293.078125 298.421875 291.441406 301.21875 292.863281 L 302.660156 291.082031 C 300.171875 289.507813 296.519531 289.5625 293.6875 293.0625 C 290.484375 297.019531 291.449219 301.753906 295.632813 305.136719 C 300.859375 309.371094 305.316406 307.96875 307.820313 304.878906 C 308.644531 303.855469 311.792969 299.507813 307.273438 294.597656 Z M 305.828125 296.378906 "/>
<path style=" stroke:none;fill-rule:evenodd;fill:rgb(3.137207%,16.479492%,27.830505%);fill-opacity:1;" d="M 315.898438 288.132813 L 310.644531 285.566406 L 314.84375 276.960938 L 312.957031 276.039063 L 308.757813 284.648438 L 303.941406 282.296875 L 308.496094 272.96875 L 306.605469 272.050781 L 301.019531 283.503906 L 316.746094 291.171875 L 322.410156 279.566406 L 320.527344 278.648438 Z M 315.898438 288.132813 "/>
<path style=" stroke:none;fill-rule:evenodd;fill:rgb(3.137207%,16.479492%,27.830505%);fill-opacity:1;" d="M 328.855469 256.871094 C 327.9375 260.558594 324.480469 262.054688 320.480469 261.058594 C 316.484375 260.066406 314.132813 257.113281 315.050781 253.425781 C 315.96875 249.738281 319.433594 248.238281 323.425781 249.234375 C 327.421875 250.234375 329.777344 253.179688 328.855469 256.871094 Z M 324.015625 246.871094 C 320.351563 245.960938 314.597656 246.582031 313.015625 252.921875 C 311.433594 259.257813 316.222656 262.507813 319.886719 263.421875 C 323.554688 264.335938 329.308594 263.710938 330.890625 257.375 C 332.464844 251.042969 327.679688 247.785156 324.015625 246.871094 Z M 324.015625 246.871094 "/>
<path style=" stroke:none;fill-rule:evenodd;fill:rgb(3.137207%,16.479492%,27.830505%);fill-opacity:1;" d="M 326.132813 232.066406 L 324.042969 231.878906 L 323.292969 240.425781 L 317.953125 239.957031 L 318.808594 230.25 L 316.71875 230.066406 L 315.660156 242.132813 L 333.09375 243.65625 L 333.296875 241.296875 L 325.386719 240.609375 Z M 326.132813 232.066406 "/>
<path style=" stroke:none;fill-rule:evenodd;fill:rgb(3.137207%,16.479492%,27.830505%);fill-opacity:1;" d="M 325.320313 219.023438 C 321.203125 218.980469 318.234375 216.65625 318.273438 212.855469 C 318.316406 209.054688 321.335938 206.800781 325.453125 206.84375 C 329.570313 206.886719 332.542969 209.210938 332.496094 213.011719 C 332.457031 216.808594 329.441406 219.066406 325.320313 219.023438 Z M 325.480469 204.40625 C 321.707031 204.363281 316.25 206.308594 316.183594 212.835938 C 316.109375 219.363281 321.523438 221.417969 325.296875 221.460938 C 329.070313 221.503906 334.527344 219.5625 334.597656 213.035156 C 334.664063 206.507813 329.257813 204.449219 325.480469 204.40625 Z M 325.480469 204.40625 "/>
<path style=" stroke:none;fill-rule:evenodd;fill:rgb(3.137207%,16.479492%,27.830505%);fill-opacity:1;" d="M 318.640625 203.519531 L 318.707031 197.601563 L 334.097656 197.765625 L 334.125 195.398438 L 318.730469 195.238281 L 318.792969 189.320313 L 316.703125 189.292969 L 316.546875 203.492188 Z M 318.640625 203.519531 "/>
<path style=" stroke:none;fill-rule:evenodd;fill:rgb(3.137207%,16.479492%,27.830505%);fill-opacity:1;" d="M 334.050781 187.871094 L 334.074219 185.507813 L 325.917969 185.421875 L 326.015625 176.285156 L 334.171875 176.371094 L 334.199219 174.007813 L 316.710938 173.820313 L 316.683594 176.183594 L 323.917969 176.261719 L 323.820313 185.398438 L 316.585938 185.320313 L 316.554688 187.679688 Z M 334.050781 187.871094 "/>
<path style=" stroke:none;fill-rule:evenodd;fill:rgb(3.137207%,16.479492%,27.830505%);fill-opacity:1;" d="M 334.050781 170.574219 L 334.191406 157.664063 L 332.097656 157.640625 L 331.984375 168.1875 L 326.132813 168.125 L 326.238281 158.554688 L 324.144531 158.527344 L 324.042969 168.101563 L 318.683594 168.046875 L 318.792969 157.664063 L 316.703125 157.644531 L 316.566406 170.386719 Z M 334.050781 170.574219 "/>
<path style=" stroke:none;fill-rule:evenodd;fill:rgb(3.137207%,16.479492%,27.830505%);fill-opacity:1;" d="M 324.554688 152.382813 L 318.605469 152.316406 L 318.671875 146.421875 C 318.6875 145.25 318.925781 143.28125 321.628906 143.3125 C 324.214844 143.339844 324.632813 145.171875 324.613281 146.902344 Z M 329.789063 143.59375 C 330.445313 143.597656 333.105469 143.554688 334.175781 143.226563 L 334.210938 140.328125 L 333.820313 140.324219 C 333.398438 141.054688 333.027344 141.167969 332.058594 141.179688 L 328.890625 141.292969 C 326.453125 141.367188 326.003906 142.359375 325.578125 143.355469 C 324.933594 142.222656 324 140.898438 321.414063 140.875 C 317.714844 140.832031 316.683594 143.695313 316.652344 146.570313 L 316.5625 154.660156 L 334.050781 154.84375 L 334.082031 152.480469 L 326.578125 152.402344 L 326.636719 146.675781 C 326.664063 143.855469 328.351563 143.574219 329.789063 143.59375 Z M 329.789063 143.59375 "/>
<path style=" stroke:none;fill-rule:evenodd;fill:rgb(3.137207%,16.479492%,27.830505%);fill-opacity:1;" d="M 324.648438 128.679688 L 323.453125 133.660156 C 323.199219 134.679688 322.695313 135.722656 321.214844 135.703125 C 318.554688 135.679688 318.171875 133.164063 318.1875 131.679688 C 318.207031 129.703125 319.085938 127.476563 321.789063 127.378906 L 321.816406 125.160156 C 319.886719 125.242188 316.226563 125.808594 316.164063 131.921875 C 316.113281 136.160156 318.777344 137.96875 321.503906 137.996094 C 324.550781 138.03125 325.382813 135.457031 325.660156 134.316406 L 326.53125 130.742188 C 327.238281 127.875 327.835938 127.03125 329.660156 127.050781 C 332.171875 127.078125 332.578125 129.957031 332.558594 131.660156 C 332.539063 133.902344 331.585938 136.476563 328.414063 136.441406 L 328.390625 138.65625 C 330.019531 138.675781 331.484375 138.394531 332.84375 136.921875 C 333.558594 136.15625 334.546875 134.898438 334.582031 131.660156 C 334.613281 128.664063 333.511719 124.800781 329.371094 124.757813 C 326.589844 124.730469 325.214844 126.417969 324.648438 128.679688 Z M 324.648438 128.679688 "/>
<path style=" stroke:none;fill-rule:evenodd;fill:rgb(3.137207%,16.479492%,27.830505%);fill-opacity:1;" d="M 216.15625 344.855469 C 214.289063 344.835938 212.65625 346.464844 212.515625 348.21875 C 212.65625 350.195313 214.289063 351.832031 216.15625 351.851563 C 218.023438 351.832031 219.65625 350.195313 219.519531 348.21875 C 219.65625 346.464844 218.023438 344.835938 216.15625 344.855469 Z M 216.15625 344.855469 "/>
<path style=" stroke:none;fill-rule:evenodd;fill:rgb(3.137207%,16.479492%,27.830505%);fill-opacity:1;" d="M 134.488281 252.824219 L 134.792969 253.691406 L 177.507813 210.972656 L 161.476563 210.988281 L 132.257813 240.601563 L 132.429688 242.417969 Z M 134.488281 252.824219 "/>
<path style=" stroke:none;fill-rule:evenodd;fill:rgb(3.137207%,16.479492%,27.830505%);fill-opacity:1;" d="M 144.210938 275.648438 L 208.425781 210.945313 L 193.085938 210.960938 L 139.058594 264.980469 L 141.164063 269.613281 Z M 144.210938 275.648438 "/>
<path style=" stroke:none;fill-rule:evenodd;fill:rgb(3.137207%,16.479492%,27.830505%);fill-opacity:1;" d="M 131.347656 219.851563 L 131.390625 225.308594 L 146.027344 210.996094 L 131.347656 211.007813 Z M 131.347656 219.851563 "/>
<path style=" stroke:none;fill-rule:evenodd;fill:rgb(3.137207%,16.479492%,27.830505%);fill-opacity:1;" d="M 155.886719 291.398438 L 158.265625 293.703125 L 214.453125 237.359375 L 214.445313 220.90625 L 150.277344 285.140625 L 150.796875 285.867188 Z M 155.886719 291.398438 "/>
<path style=" stroke:none;fill-rule:evenodd;fill:rgb(3.137207%,16.479492%,27.830505%);fill-opacity:1;" d="M 175.238281 307.503906 L 214.457031 267.972656 L 214.457031 252.914063 L 166.328125 300.910156 L 167.183594 301.613281 Z M 175.238281 307.503906 "/>
<path style=" stroke:none;fill-rule:evenodd;fill:rgb(3.137207%,16.479492%,27.830505%);fill-opacity:1;" d="M 194.640625 319.6875 L 214.484375 299.695313 L 214.46875 283.675781 L 184.527344 313.628906 L 190.445313 317.324219 Z M 194.640625 319.6875 "/>
<path style=" stroke:none;fill-rule:evenodd;fill:rgb(3.137207%,16.479492%,27.830505%);fill-opacity:1;" d="M 214.484375 315.542969 L 204.648438 325.257813 L 214.496094 330.183594 Z M 214.484375 315.542969 "/>
<path style=" stroke:none;fill-rule:evenodd;fill:rgb(3.137207%,16.479492%,27.830505%);fill-opacity:1;" d="M 299.277344 201.777344 L 247.074219 201.777344 L 293.15625 156.304688 L 299.277344 162.101563 Z M 222.65625 201.777344 L 222.65625 185.601563 L 263.558594 145.019531 L 281.261719 162.410156 L 241.582031 201.777344 Z M 222.355469 163.628906 L 229.988281 156.003906 L 238.226563 164.546875 L 222.355469 180.417969 Z M 302.929688 123.339844 L 219.300781 123.339844 L 219.300781 205.746094 L 302.929688 205.746094 Z M 302.929688 123.339844 "/>
<path style=" stroke:none;fill-rule:evenodd;fill:rgb(3.137207%,16.479492%,27.830505%);fill-opacity:1;" d="M 229.476563 216.496094 L 235.550781 216.496094 L 235.550781 239.121094 L 229.476563 239.121094 Z M 241.925781 216.335938 L 248.804688 216.335938 L 248.804688 224.640625 L 258.449219 224.640625 L 258.449219 216.335938 L 265.433594 216.335938 L 265.433594 239.421875 L 258.609375 239.421875 L 258.609375 229.167969 L 248.503906 229.167969 L 248.503906 239.421875 L 241.925781 239.421875 Z M 279.980469 229.640625 C 275.398438 228.710938 270.269531 227.976563 270.007813 222.613281 C 270.269531 217.472656 275.886719 214.789063 281.738281 214.984375 C 287.605469 214.789063 292.980469 216.75 293.464844 222.613281 L 285.261719 222.613281 C 285.398438 221.871094 284.90625 221.375 284.082031 220.847656 C 283.199219 220.410156 282.484375 220.164063 281.738281 220.265625 C 280.511719 220.164063 278.320313 220.410156 278.226563 222.019531 C 278.8125 223.574219 282.484375 223.824219 286.4375 224.949219 C 290.53125 226.023438 294.683594 227.734375 294.632813 231.972656 C 294.683594 238.480469 287.84375 240.433594 281.738281 240.183594 C 278.320313 240.433594 269.289063 239.210938 269.433594 231.398438 L 277.636719 231.398438 C 277.84375 232.121094 277.84375 232.863281 278.226563 233.152344 C 278.8125 234.808594 280.765625 235.0625 282.328125 234.914063 C 283.9375 235.0625 285.886719 234.570313 285.84375 232.570313 C 285.886719 231.636719 284.660156 231.148438 279.980469 229.640625 Z M 219.25 330.1875 L 230.238281 324.679688 L 243.300781 317.320313 L 255.316406 309.835938 L 266.570313 301.613281 L 272.261719 296.808594 L 277.859375 291.398438 L 282.960938 285.867188 L 287.667969 279.324219 L 292.578125 269.613281 L 296.109375 261.855469 L 299.257813 252.824219 L 301.316406 242.417969 L 302.300781 232.015625 L 302.390625 219.851563 L 302.390625 211.007813 L 219.300781 210.945313 Z M 219.25 330.1875 "/>
<path style=" stroke:none;fill-rule:evenodd;fill:rgb(3.137207%,16.479492%,27.830505%);fill-opacity:1;" d="M 210.378906 183.699219 C 203.976563 188.769531 202.515625 196.105469 202.753906 201.867188 L 196.308594 201.867188 C 196.164063 201.71875 196.65625 194.152344 199.828125 187.792969 C 202.269531 183.894531 202.753906 183.644531 202.753906 183.699219 L 192.792969 183.699219 L 192.792969 177.835938 L 210.378906 177.835938 Z M 189.726563 183.570313 C 183.328125 188.65625 181.863281 195.976563 182.113281 201.738281 L 175.660156 201.738281 C 175.519531 201.589844 176.003906 194.03125 179.175781 187.679688 C 181.617188 183.769531 182.113281 183.523438 182.113281 183.570313 L 172.148438 183.570313 L 172.148438 177.707031 L 189.726563 177.707031 Z M 161.007813 202.328125 C 155.738281 202.078125 151.585938 200.128906 151.636719 194.714844 C 151.585938 190.371094 155.007813 189.628906 155.738281 188.851563 C 154.023438 188.414063 152.808594 186.707031 152.808594 184.164063 C 152.558594 179.621094 157.199219 177.664063 161.007813 177.707031 C 167.941406 177.664063 169.410156 180.601563 169.800781 184.164063 C 169.65625 186.457031 168.679688 188.414063 166.28125 188.851563 C 168.921875 189.378906 170.628906 191.828125 170.96875 194.714844 C 171.367188 200.128906 166.234375 202.078125 161.007813 202.328125 Z M 147.636719 200.980469 L 142.554688 200.980469 L 142.554688 187.898438 L 136.144531 187.898438 L 136.144531 183.539063 C 139.46875 183.589844 142.390625 182.453125 142.628906 178.632813 L 147.636719 178.632813 Z M 214.722656 123.035156 L 131.089844 123.035156 L 131.089844 205.445313 L 214.722656 205.445313 Z M 214.722656 123.035156 "/>
<path style=" stroke:none;fill-rule:evenodd;fill:rgb(3.137207%,16.479492%,27.830505%);fill-opacity:1;" d="M 160.992188 187.660156 C 163.199219 187.660156 164.984375 186.289063 164.984375 184.585938 C 164.984375 182.890625 163.199219 181.511719 160.992188 181.511719 C 158.78125 181.511719 156.992188 182.890625 156.992188 184.585938 C 156.992188 186.289063 158.78125 187.660156 160.992188 187.660156 Z M 160.992188 187.660156 "/>
<path style=" stroke:none;fill-rule:evenodd;fill:rgb(3.137207%,16.479492%,27.830505%);fill-opacity:1;" d="M 161.25 191.414063 C 158.859375 191.414063 156.941406 192.859375 156.941406 194.644531 C 156.941406 196.425781 158.859375 197.867188 161.25 197.867188 C 163.625 197.867188 165.546875 196.425781 165.546875 194.644531 C 165.546875 192.859375 163.625 191.414063 161.25 191.414063 Z M 161.25 191.414063 "/>
<path style=" stroke:none;fill-rule:evenodd;fill:rgb(3.137207%,16.479492%,27.830505%);fill-opacity:1;" d="M 215.886719 340.839844 L 217.425781 341.453125 L 218.714844 340.96875 C 237.300781 332.527344 282.039063 309.480469 297.246094 280.953125 C 308.023438 260.933594 311.628906 246.945313 311.539063 225.539063 L 311.539063 122.988281 L 307.679688 122.988281 L 307.679688 225.546875 C 307.761719 246.230469 304.273438 259.746094 293.84375 279.128906 C 278.757813 307.425781 231.28125 330.632813 217.085938 337.070313 C 217.058594 337.078125 217.027344 337.09375 217 337.109375 C 205.964844 332.195313 155.710938 308.574219 140.183594 279.109375 C 129.695313 259.984375 126.058594 246.464844 125.769531 225.539063 L 125.769531 122.988281 L 121.910156 122.988281 L 121.910156 225.566406 C 122.203125 247.234375 125.964844 261.210938 136.785156 280.9375 C 152.949219 311.609375 204.585938 335.820313 215.886719 340.839844 Z M 215.886719 340.839844 "/>
</g>
</svg>
